<svg width="23" height="22" viewBox="0 0 23 22" fill="none" xmlns="http://www.w3.org/2000/svg">
<path d="M15.9918 21.5704C15.2955 21.5704 14.6051 21.4473 13.93 21.202C10.9559 20.1216 8.19523 18.3619 5.94644 16.1132C3.69766 13.8644 1.93798 11.1037 0.857606 8.12959C0.51043 7.17379 0.407975 6.18716 0.55319 5.19698C0.689221 4.26949 1.04849 3.36909 1.59219 2.5931C2.13829 1.81369 2.86635 1.16543 3.69762 0.718407C4.58407 0.24173 5.55162 0 6.57348 0C6.89129 0 7.16596 0.222056 7.23257 0.532792L8.29057 5.47014C8.33847 5.69371 8.26976 5.92634 8.10811 6.08803L6.30028 7.89582C8.0057 11.2865 10.773 14.0538 14.1637 15.7592L15.9715 13.9514C16.1332 13.7898 16.3659 13.7211 16.5894 13.769L21.5267 14.827C21.8375 14.8936 22.0595 15.1682 22.0595 15.486C22.0595 16.5079 21.8178 17.4755 21.3411 18.3619C20.8941 19.1932 20.2458 19.9213 19.4664 20.4674C18.6904 21.0111 17.79 21.3703 16.8625 21.5064C16.5719 21.5491 16.2813 21.5703 15.9918 21.5704ZM6.03491 1.37758C4.68703 1.52638 3.49068 2.23286 2.69624 3.36674C1.80287 4.64174 1.59455 6.20995 2.12469 7.66934C4.20176 13.3872 8.67241 17.8578 14.3903 19.9349C15.8496 20.4651 17.4178 20.2568 18.6929 19.3634C19.8267 18.5689 20.5332 17.3726 20.682 16.0247L16.6655 15.164L14.7775 17.052C14.5766 17.2529 14.2713 17.3063 14.0143 17.1855C10.0041 15.3015 6.75808 12.0555 4.87412 8.04533C4.75334 7.78823 4.80667 7.48297 5.00758 7.2821L6.89559 5.3941L6.03491 1.37758Z" fill="#292A35"/>
</svg>
