<svg width="223" height="62" viewBox="0 0 223 62" fill="none" xmlns="http://www.w3.org/2000/svg">
<path fill-rule="evenodd" clip-rule="evenodd" d="M29.0694 11.8731C29.777 8.46021 30.4846 5.15076 31.3101 1.7379C31.4281 0.703693 31.0743 0.393432 30.6025 0.186592C29.8949 -0.020249 28.7156 0.496848 28.008 1.01395C27.0645 1.63447 17.276 6.59865 11.6152 10.5286C5.95439 14.4586 5.48266 16.1133 5.60059 17.2509C5.83646 18.3886 7.7234 19.2159 9.96414 19.2159C12.2049 19.2159 19.045 18.9057 19.045 18.9057C19.045 18.9057 22.3472 17.4578 24.9417 16.0099C27.6542 14.562 28.9515 13.2175 29.0694 11.8731Z" fill="#D1030F"/>
<path fill-rule="evenodd" clip-rule="evenodd" d="M5.60004 16.8372C4.65658 21.698 3.7131 26.5587 2.76964 31.4195C2.76964 31.4195 2.17997 33.6947 5.36418 33.6947C8.54839 33.6947 13.1478 33.1776 16.8037 32.764C20.3418 32.3503 36.4987 30.799 36.4987 30.799C36.4987 30.799 39.447 28.2135 41.4519 25.7314C43.3388 23.3527 44.4002 20.7672 44.6361 19.733C44.872 18.8022 45.6975 16.2167 39.447 16.8372C33.1965 17.4578 19.0445 19.1125 19.0445 19.1125C19.0445 19.1125 12.0864 19.4227 9.96359 19.4227C7.72285 19.4227 5.83591 18.492 5.60004 17.4578C5.60004 17.1475 5.60004 16.9407 5.60004 16.8372Z" fill="#9A9A9C"/>
<path fill-rule="evenodd" clip-rule="evenodd" d="M44.6364 19.6296C44.6364 19.6296 41.2163 34.8324 40.5087 37.2111C36.7348 49.4147 15.3888 56.5507 3.24166 60.7909C3.24166 60.7909 1.35472 61.4114 0.647123 60.9977C0.293322 60.7909 0.411255 60.067 0.647123 59.4464C1.70853 55.413 2.65199 51.5865 3.59546 47.4497C3.59546 47.4497 3.59547 45.2779 7.01554 44.4505C10.4356 43.5197 19.2806 40.3137 25.8849 37.3145C32.3713 34.3153 36.499 30.6956 36.499 30.6956C36.499 30.6956 39.4473 28.1101 41.4522 25.628C43.3391 23.1459 44.4005 20.6638 44.6364 19.6296Z" fill="#D1030F"/>
<path fill-rule="evenodd" clip-rule="evenodd" d="M66.8077 21.0775C66.8077 21.0775 65.0387 20.2501 62.9159 20.3535C61.3828 20.457 59.7317 21.4912 59.8497 22.9391C59.9676 25.0075 62.5621 25.628 64.9208 26.6622C70.5816 29.2477 68.4588 35.3495 62.4442 35.3495C62.4442 35.3495 62.4442 35.3495 62.3263 35.3495C59.26 35.3495 57.373 34.3153 57.373 34.3153C57.6089 33.7982 57.7268 33.3845 57.9627 32.8674C59.3779 33.5913 61.029 33.9016 62.5621 33.7982C64.4491 33.6948 65.8643 32.8674 65.9822 30.5921C65.9822 26.9724 57.7268 28.1101 57.491 23.2493C57.373 21.0775 59.8497 19.0091 62.6801 18.9057C65.2746 18.8022 67.3974 19.733 67.3974 19.733C67.2795 20.2501 67.0436 20.6638 66.8077 21.0775ZM109.146 18.9057C114.453 18.9057 118.699 22.422 118.699 27.0759C118.699 31.7298 114.453 35.4529 109.146 35.4529C103.839 35.4529 99.5933 31.7298 99.5933 27.0759C99.5933 22.5254 103.839 18.9057 109.146 18.9057ZM109.146 20.1467C104.782 20.1467 101.362 23.3527 101.362 27.1793C101.362 31.0058 104.782 34.3153 109.146 34.3153C113.509 34.3153 117.047 31.0058 117.047 27.1793C117.047 23.3527 113.627 20.1467 109.146 20.1467ZM170.943 18.9057C176.25 18.9057 180.496 22.422 180.496 27.0759C180.496 31.7298 176.25 35.4529 170.943 35.4529C165.636 35.4529 161.391 31.7298 161.391 27.0759C161.273 22.5254 165.518 18.9057 170.943 18.9057ZM170.943 20.1467C166.58 20.1467 163.042 23.3527 163.042 27.1793C163.042 31.0058 166.462 34.3153 170.943 34.3153C175.307 34.3153 178.845 31.0058 178.845 27.1793C178.727 23.3527 175.307 20.1467 170.943 20.1467ZM201.842 30.1785C202.903 30.1785 203.847 30.1785 204.908 30.1785C207.031 26.3519 209.154 22.5254 211.394 18.8022C214.579 24.3869 217.763 29.9716 220.947 35.4529C220.357 35.4529 219.65 35.4529 219.06 35.4529C218.353 34.2119 217.645 32.9708 216.937 31.7298C213.281 31.7298 209.743 31.7298 206.087 31.7298C205.38 32.9708 204.672 34.2119 203.965 35.4529C203.375 35.4529 202.667 35.4529 202.078 35.4529C202.785 34.2119 203.493 32.9708 204.201 31.7298C203.493 31.7298 202.785 31.7298 201.96 31.7298C201.842 31.2127 201.842 30.6956 201.842 30.1785ZM206.913 30.1785C209.979 30.1785 212.928 30.1785 215.994 30.1785C214.461 27.4895 212.928 24.8006 211.394 22.1117C209.861 24.8006 208.328 27.4895 206.913 30.1785ZM182.972 18.9057C184.741 18.9057 186.628 18.9057 188.397 18.9057C193.822 18.9057 199.247 21.0775 199.837 26.3519C200.427 31.3161 196.535 35.4529 190.048 35.4529C187.69 35.4529 185.331 35.4529 182.972 35.4529C182.855 29.9716 182.972 24.4904 182.972 18.9057ZM184.624 34.2119C186.393 34.2119 188.162 34.2119 190.048 34.2119C195.473 34.2119 198.658 30.4887 198.186 26.5588C197.714 22.3185 192.879 20.2501 188.515 20.2501C187.218 20.2501 185.921 20.2501 184.741 20.2501C184.624 24.904 184.624 29.5579 184.624 34.2119ZM137.686 35.4529C137.686 29.9716 137.686 24.5938 137.686 19.1125C141.224 22.2151 144.644 25.2143 148.182 28.3169C151.72 25.2143 155.258 22.2151 158.796 19.1125C158.796 24.5938 158.796 29.9716 158.796 35.4529C158.206 35.4529 157.617 35.4529 157.027 35.4529C157.027 31.2127 157.027 26.9724 157.027 22.7322C154.079 25.3177 151.13 27.7998 148.182 30.3853C145.234 27.7998 142.403 25.3177 139.455 22.7322C139.455 26.9724 139.455 31.2127 139.455 35.4529C138.865 35.4529 138.276 35.4529 137.686 35.4529ZM122.355 18.9057C124.006 21.1809 125.539 23.4562 127.19 25.7314C128.841 23.4562 130.492 21.1809 132.143 18.9057C132.851 18.9057 133.44 18.9057 134.148 18.9057C132.143 21.698 130.138 24.5938 128.015 27.3861C128.015 30.075 128.015 32.764 128.015 35.4529C127.426 35.4529 126.836 35.4529 126.246 35.4529C126.246 32.764 126.246 30.075 126.246 27.3861C124.241 24.5938 122.237 21.698 120.232 18.9057C121.057 18.9057 121.765 18.9057 122.355 18.9057ZM86.8565 20.3535C86.8565 23.7664 86.8565 27.2827 86.8565 30.6956C87.9179 30.6956 89.0972 30.6956 90.1586 30.6956C93.6966 30.2819 95.4656 28.1101 95.4656 25.4211C95.4656 22.6288 93.4608 20.3535 89.9227 20.3535C88.9793 20.3535 87.9179 20.3535 86.8565 20.3535ZM86.8565 32.1434C86.8565 33.2811 86.8565 34.3153 86.8565 35.4529C86.2668 35.4529 85.6771 35.4529 85.0875 35.4529C85.0875 30.1785 85.0875 24.904 85.0875 19.6296C85.0875 19.4228 85.0875 19.1125 85.0875 18.9057C86.3847 18.9057 87.5641 18.9057 88.8614 18.9057C93.5787 18.9057 97.3526 21.0775 97.3526 25.5246C97.3526 27.593 96.527 29.0408 95.4656 30.075C94.6401 30.9024 93.4608 31.4195 92.6352 31.7298H92.5173C94.1684 32.9708 95.7015 34.2119 97.3526 35.4529C96.527 35.4529 95.5836 35.4529 94.758 35.4529C93.3428 34.3153 91.9276 33.2811 90.3945 32.1434C89.3331 32.1434 88.1537 32.1434 86.8565 32.1434ZM70.8175 18.8022C74.7093 18.8022 78.6011 18.8022 82.4929 18.8022C82.4929 19.3193 82.4929 19.8364 82.4929 20.3535C80.8419 20.3535 79.1908 20.3535 77.5397 20.3535C77.5397 25.4211 77.5397 30.4887 77.5397 35.6597C76.95 35.6597 76.3604 35.6597 75.7707 35.6597C75.7707 30.5921 75.7707 25.5246 75.7707 20.3535C74.1196 20.3535 72.4686 20.3535 70.6996 20.3535C70.8175 19.8364 70.8175 19.3193 70.8175 18.8022Z" fill="#404149"/>
</svg>
