<svg width="23" height="17" viewBox="0 0 23 17" fill="none" xmlns="http://www.w3.org/2000/svg">
<path d="M20.0374 0.696533H2.51149C1.39636 0.696533 0.489258 1.60364 0.489258 2.71877V14.8521C0.489258 15.9672 1.39636 16.8743 2.51149 16.8743H20.0374C21.1525 16.8743 22.0596 15.9672 22.0596 14.8521V2.71877C22.0596 1.60364 21.1525 0.696533 20.0374 0.696533ZM20.0374 2.04468C20.129 2.04468 20.2161 2.06368 20.2958 2.09686L11.2744 9.91569L2.25309 2.09686C2.33274 2.06372 2.41986 2.04468 2.51145 2.04468H20.0374ZM20.0374 15.5261H2.51149C2.13957 15.5261 1.8374 15.224 1.8374 14.8521V3.52119L10.8327 11.3171C10.9598 11.4271 11.1171 11.4817 11.2744 11.4817C11.4318 11.4817 11.5891 11.4271 11.7162 11.3171L20.7115 3.52119V14.8521C20.7114 15.224 20.4093 15.5261 20.0374 15.5261Z" fill="#292A35"/>
</svg>
