<svg width="25" height="25" viewBox="0 0 25 25" fill="none" xmlns="http://www.w3.org/2000/svg">
<g clip-path="url(#clip0_30634_2620)">
<path d="M12.4443 0C7.61959 0 3.69434 3.92525 3.69434 8.75C3.69434 10.3801 4.14588 11.971 5.00047 13.3511L11.9463 23.7146C12.0793 23.929 12.3137 24.0593 12.5658 24.0593C12.5678 24.0593 12.5697 24.0593 12.5716 24.0593C12.8259 24.0573 13.0608 23.923 13.1914 23.7048L19.9601 13.2329C20.7676 11.8819 21.1943 10.3318 21.1943 8.75C21.1943 3.92525 17.2691 0 12.4443 0ZM18.7087 12.4842L12.5548 21.9294L6.23995 12.5828C5.52863 11.434 5.14295 10.1087 5.14295 8.75C5.14295 4.72937 8.42371 1.44861 12.4443 1.44861C16.465 1.44861 19.7409 4.72937 19.7409 8.75C19.7409 10.0684 19.3806 11.3598 18.7087 12.4842Z" fill="#292A35"/>
<path d="M12.4443 4.375C10.032 4.375 8.06934 6.33763 8.06934 8.75C8.06934 11.147 10 13.125 12.4443 13.125C14.9188 13.125 16.8193 11.1206 16.8193 8.75C16.8193 6.33763 14.8567 4.375 12.4443 4.375ZM12.4443 11.6764C10.8277 11.6764 9.51795 10.3623 9.51795 8.75C9.51795 7.14175 10.8361 5.82361 12.4443 5.82361C14.0526 5.82361 15.3659 7.14175 15.3659 8.75C15.3659 10.3388 14.0866 11.6764 12.4443 11.6764Z" fill="#292A35"/>
</g>
<defs>
<clipPath id="clip0_30634_2620">
<rect width="24.0593" height="24.0593" fill="white"/>
</clipPath>
</defs>
</svg>
