<svg width="21" height="21" viewBox="0 0 21 21" fill="none" xmlns="http://www.w3.org/2000/svg">
<g clip-path="url(#clip0_30584_4897)">
<g filter="url(#filter0_d_30584_4897)">
<path d="M9.24796 0C4.14877 0 0 4.14877 0 9.24796C0 14.3474 4.14877 18.4959 9.24796 18.4959C14.3474 18.4959 18.4959 14.3474 18.4959 9.24796C18.4959 4.14877 14.3474 0 9.24796 0ZM9.24796 16.7886C5.09008 16.7886 1.70732 13.4059 1.70732 9.248C1.70732 5.09012 5.09008 1.70732 9.24796 1.70732C13.4058 1.70732 16.7886 5.09008 16.7886 9.24796C16.7886 13.4058 13.4058 16.7886 9.24796 16.7886Z" fill="#646677"/>
</g>
<g filter="url(#filter1_d_30584_4897)">
<path d="M20.75 19.5426L15.8557 14.6483C15.5222 14.3148 14.9821 14.3148 14.6486 14.6483C14.3151 14.9815 14.3151 15.5222 14.6486 15.8554L19.5429 20.7497C19.7096 20.9165 19.9279 20.9998 20.1464 20.9998C20.3647 20.9998 20.5832 20.9165 20.75 20.7497C21.0835 20.4165 21.0835 19.8758 20.75 19.5426Z" fill="#646677"/>
</g>
</g>
<defs>
<filter id="filter0_d_30584_4897" x="-16" y="-10" width="50.4961" height="50.4958" filterUnits="userSpaceOnUse" color-interpolation-filters="sRGB">
<feFlood flood-opacity="0" result="BackgroundImageFix"/>
<feColorMatrix in="SourceAlpha" type="matrix" values="0 0 0 0 0 0 0 0 0 0 0 0 0 0 0 0 0 0 127 0" result="hardAlpha"/>
<feOffset dy="6"/>
<feGaussianBlur stdDeviation="8"/>
<feColorMatrix type="matrix" values="0 0 0 0 0.390833 0 0 0 0 0.398417 0 0 0 0 0.466667 0 0 0 0.2 0"/>
<feBlend mode="normal" in2="BackgroundImageFix" result="effect1_dropShadow_30584_4897"/>
<feBlend mode="normal" in="SourceGraphic" in2="effect1_dropShadow_30584_4897" result="shape"/>
</filter>
<filter id="filter1_d_30584_4897" x="-1.60156" y="4.39819" width="38.6016" height="38.6016" filterUnits="userSpaceOnUse" color-interpolation-filters="sRGB">
<feFlood flood-opacity="0" result="BackgroundImageFix"/>
<feColorMatrix in="SourceAlpha" type="matrix" values="0 0 0 0 0 0 0 0 0 0 0 0 0 0 0 0 0 0 127 0" result="hardAlpha"/>
<feOffset dy="6"/>
<feGaussianBlur stdDeviation="8"/>
<feColorMatrix type="matrix" values="0 0 0 0 0.390833 0 0 0 0 0.398417 0 0 0 0 0.466667 0 0 0 0.2 0"/>
<feBlend mode="normal" in2="BackgroundImageFix" result="effect1_dropShadow_30584_4897"/>
<feBlend mode="normal" in="SourceGraphic" in2="effect1_dropShadow_30584_4897" result="shape"/>
</filter>
<clipPath id="clip0_30584_4897">
<rect width="21" height="21" fill="white"/>
</clipPath>
</defs>
</svg>
